<svg width="1383" height="575" viewBox="0 0 1383 575" fill="none" xmlns="http://www.w3.org/2000/svg">
<rect width="1383" height="574.644" fill="white"/>
<path fill-rule="evenodd" clip-rule="evenodd" d="M71.0729 149.972C45.8605 154.17 29.8892 173.655 28.1588 202.327C26.001 238.071 46.1041 305.229 72.1756 349.377C81.9846 365.987 95.5075 380.13 107.206 386.014C116.425 390.651 128.76 390.824 138.58 386.456C143.317 384.348 150.803 378.428 155.041 373.438C160.028 367.564 166.938 356.855 170.51 349.463C172.402 345.545 173.897 343.259 174.565 343.259C175.223 343.259 176.72 345.481 178.536 349.154C188.947 370.22 203.15 390.87 216.018 403.65C231.88 419.403 247.515 426.232 265.406 425.223C278.893 424.462 289.219 420.022 301.712 409.609C316.27 397.475 332.963 374.622 344.888 350.502C347.1 346.028 348.861 343.26 349.493 343.262C350.113 343.263 351.899 345.984 354.025 350.168C359.915 361.759 365.186 369.268 372.621 376.657C380.277 384.265 384.959 387.052 392.904 388.73C405.64 391.419 416.875 388.065 428.991 377.957C449.327 360.991 471.774 317.531 486.062 267.461C498.262 224.71 499.215 194.826 489 175.361C479.809 157.844 462.014 148.422 440.001 149.416C425.302 150.079 415.908 154.286 404.432 165.341C389.608 179.624 379.34 198.285 359.922 246.238C355.535 257.07 352.023 264.84 351.468 264.945C350.793 265.071 348.877 260.577 344.861 249.448C336.66 226.723 332.724 217.171 325.63 202.781C315.659 182.557 307.18 170.601 296.767 162.079C286.658 153.808 277.09 149.985 265.035 149.401C247.716 148.562 232.033 155.515 219.423 169.625C205.875 184.783 192.406 211.961 177.87 253.473C175.503 260.232 173.222 265.765 172.8 265.769C172.379 265.773 169.531 259.486 166.471 251.796C153.707 219.714 145.438 201.677 137.251 188.05C124.134 166.218 109.448 153.678 93.0255 150.288C87.4586 149.138 76.9849 148.988 71.0729 149.972ZM437.727 176.264C421.476 178.92 408.004 198.491 388.865 247.249C385.23 256.513 378.639 273.037 374.222 283.968C369.804 294.9 366.043 304.769 365.865 305.899C365.338 309.229 375.688 334.782 381.856 345.381C387.286 354.713 395.445 361.46 401.278 361.443C404.841 361.434 409.933 358.753 414.592 354.434C431.272 338.969 455.284 281.202 463.485 236.805C467.645 214.29 467.315 199.68 462.411 189.155C458.144 180 447.829 174.612 437.727 176.264ZM74.9678 177.05C69.2684 179.165 64.6011 183.503 61.6138 189.46C55.3324 201.985 57.0185 227.636 66.3201 261.06C75.1791 292.891 88.5768 325.235 100.23 342.922C107.53 354.002 116.581 361.437 122.769 361.437C125.432 361.437 130.966 358.984 133.629 356.624C140.639 350.412 150.808 331.004 158.105 309.908L159.27 306.539L154.532 295.422C149.592 283.833 147.187 277.788 138.588 255.334C123.627 216.267 113.211 196.17 102.269 185.263C95.5889 178.603 91.2627 176.555 83.4096 176.334C79.6513 176.229 76.4487 176.5 74.9678 177.05ZM256.165 177.206C237.052 182.36 223.685 204.486 202.042 266.787C199.854 273.087 195.914 284.377 193.286 291.875L188.509 305.509L197.337 323.205C209.955 348.502 218.925 362.238 230.021 373.258C242.754 385.904 255.037 390.72 268.68 388.416C281.759 386.207 296.256 373.995 309.492 354.039C316.514 343.452 324.04 329.829 330.446 316.106L335.416 305.461L329.407 287.809C326.102 278.1 321.52 264.85 319.225 258.365C299.539 202.738 285.025 180.343 266.429 176.9C261.518 175.991 260.562 176.02 256.165 177.206Z" fill="url(#paint0_linear_60_4)"/>
<path d="M511.376 205.3H538.256L567.44 316.404C569.744 325.62 572.56 336.628 574.352 346.612H575.12C577.168 336.628 579.472 325.364 581.776 316.404L610.448 205.3H641.424L670.096 316.404C672.4 325.108 674.704 336.372 676.752 346.612H677.264C679.312 336.628 682.128 325.364 684.432 316.66L713.104 205.3H738.96L693.136 376.82H661.136L632.72 267.508C630.672 260.084 628.112 248.564 626.32 239.092H625.552C623.504 248.82 620.688 259.316 618.64 267.252L589.456 376.82H557.2L511.376 205.3ZM843.038 307.7C843.038 310.516 842.782 314.356 842.526 317.94H754.718C755.23 344.052 768.03 357.62 788.254 357.62C807.454 357.62 816.414 345.588 817.694 333.3H841.758C840.222 357.364 821.278 379.38 787.998 379.38C751.646 379.38 728.35 355.572 728.35 312.308C728.35 269.3 754.462 244.724 786.974 244.724C820.766 244.724 843.038 268.02 843.038 307.7ZM786.974 265.46C770.334 265.46 757.79 276.98 755.23 300.02H817.694C816.414 276.212 804.126 265.46 786.974 265.46ZM878.394 355.572H877.882L874.298 376.82H854.586V192.5H880.186V250.356C880.186 258.548 880.186 264.436 879.93 271.86H880.698C884.026 258.804 897.594 244.724 920.634 244.724C951.866 244.724 974.906 267.764 974.906 310.516C974.906 353.012 951.866 379.38 918.074 379.38C896.57 379.38 883.514 366.836 878.394 355.572ZM948.538 311.796C948.538 282.612 934.202 265.716 914.49 265.716C895.29 265.716 880.186 282.1 880.186 310.772V316.66C880.186 342.772 894.778 358.388 913.21 358.388C934.458 358.388 948.538 340.212 948.538 311.796ZM986.416 192.5H1012.02V376.82H986.416V192.5ZM1138.53 307.7C1138.53 310.516 1138.27 314.356 1138.02 317.94H1050.21C1050.72 344.052 1063.52 357.62 1083.74 357.62C1102.94 357.62 1111.9 345.588 1113.18 333.3H1137.25C1135.71 357.364 1116.77 379.38 1083.49 379.38C1047.14 379.38 1023.84 355.572 1023.84 312.308C1023.84 269.3 1049.95 244.724 1082.46 244.724C1116.26 244.724 1138.53 268.02 1138.53 307.7ZM1082.46 265.46C1065.82 265.46 1053.28 276.98 1050.72 300.02H1113.18C1111.9 276.212 1099.62 265.46 1082.46 265.46ZM1150.08 247.284H1175.42V277.748H1175.93C1181.31 259.06 1194.36 245.236 1213.31 245.236C1218.17 245.236 1221.76 245.492 1226.11 246.516V272.884C1220.73 271.348 1216.12 270.836 1211.52 270.836C1193.6 270.836 1175.68 284.66 1175.68 317.428V376.82H1150.08V247.284ZM1230.58 432.116V410.612C1235.7 412.404 1240.57 413.428 1247.22 413.428C1261.82 413.428 1267.19 405.492 1273.34 388.596L1276.92 378.612L1228.28 247.284H1255.93L1283.58 326.388C1286.14 333.044 1288.7 340.724 1290.74 348.66H1291.51C1293.56 340.724 1295.86 333.044 1297.91 326.388L1324.79 247.284H1351.93L1299.45 386.804C1288.7 415.22 1277.94 434.932 1251.58 434.932C1242.62 434.932 1236.22 434.164 1230.58 432.116Z" fill="url(#paint1_linear_60_4)"/>
<defs>
<linearGradient id="paint0_linear_60_4" x1="28" y1="287.32" x2="496" y2="287.32" gradientUnits="userSpaceOnUse">
<stop stop-color="#1E4ED8"/>
<stop offset="0.140153" stop-color="#1F6FE5"/>
<stop offset="0.574902" stop-color="#3199DB"/>
<stop offset="0.927248" stop-color="#43C3D1"/>
</linearGradient>
<linearGradient id="paint1_linear_60_4" x1="506" y1="287.32" x2="1355" y2="287.32" gradientUnits="userSpaceOnUse">
<stop stop-color="#1E4ED8"/>
<stop offset="0.140153" stop-color="#1F6FE5"/>
<stop offset="0.574902" stop-color="#3199DB"/>
<stop offset="0.927248" stop-color="#43C3D1"/>
</linearGradient>
</defs>
</svg>
