<svg width="658" height="164" viewBox="0 0 658 164" fill="none" xmlns="http://www.w3.org/2000/svg">
<path d="M19.3306 45.2896C19.3306 37.6439 20.8305 31.7738 22.7909 28.2225C25.3613 23.5709 29.195 21.6003 33.1035 21.6003C38.1446 21.6003 42.7563 22.9999 51.6437 36.7526C58.7635 47.7755 67.153 63.2481 72.7978 72.9481L82.3573 89.3816C88.9979 100.795 96.6841 113.482 105.497 122.081C112.691 129.101 120.452 133 128.263 133C141.376 133 153.867 124.498 163.426 108.552C173.888 91.0876 178.967 69.0904 178.967 46.3898C178.967 32.8949 176.589 22.9791 172.544 15.1453C168.635 7.56916 161.018 -4.23193e-06 148.203 -4.23193e-06V21.6003C159.176 21.6003 161.914 32.8809 161.914 45.791C161.914 64.1882 158.08 84.6047 149.635 99.1929C143.641 109.54 135.874 115.863 127.329 115.863C118.087 115.863 110.65 108.064 102.292 94.1584C97.8479 86.7703 93.286 77.7667 88.1639 67.6072L82.5253 56.431C71.1983 33.9603 68.3292 28.8422 62.6657 20.3956C52.739 5.60549 44.2624 -4.23193e-06 33.1035 -4.23193e-06C19.8658 -4.23193e-06 11.495 6.41324 6.31076 16.0784C2.07869 23.9539 0 34.2875 0 46.0626L19.3306 45.2896Z" fill="black"/>
<path d="M15.2422 107.027C24.1046 122.311 36.8942 133 51.5633 133C60.0585 133 68.504 130.187 77.3229 122.13C86.9695 113.322 97.2509 98.8169 110.078 74.9117L114.677 66.3329C125.78 45.6378 132.097 34.9908 135.794 29.9703C140.549 23.5222 143.878 21.6003 148.204 21.6003C159.176 21.6003 161.914 32.8809 161.914 45.791L178.967 46.3898C178.967 32.8949 176.59 22.9791 172.544 15.1453C168.636 7.56916 161.018 -4.23193e-06 148.204 -4.23193e-06C140.238 -4.23193e-06 133.18 1.93581 125.376 10.1735C119.376 16.4962 112.362 27.7281 106.966 37.8249L90.9153 67.823C82.8619 82.8778 75.4745 94.1027 71.1988 99.186C66.5996 104.652 60.6871 111.253 51.2521 111.253C43.6157 111.253 37.1307 105.258 31.7037 96.0873L15.2422 107.027Z" fill="black"/>
<path d="M51.2516 111.253C43.6152 111.253 37.1302 105.258 31.7032 96.0873C24.0294 83.1285 19.3306 63.8261 19.3306 45.2896C19.3306 37.6439 20.8305 31.7738 22.7909 28.2225L6.31076 16.0784C2.07869 23.9539 0 34.2875 0 46.0626C0 67.4749 5.25274 89.7924 15.2417 107.027C24.1041 122.311 36.8937 133 51.5628 133L51.2516 111.253Z" fill="black"/>
<path d="M224.943 83.448L226.607 99.32H227.119L228.911 83.192L244.527 33.4H256.047L271.407 83.448L273.199 99.32H273.711L275.631 83.192L286.511 33.4H304.303L279.599 123.64H267.823L251.823 73.848L249.647 60.152H249.007L246.831 73.976L230.959 123.64H218.543L193.967 33.4H213.039L224.943 83.448ZM356.088 117.496C353.528 119.544 350.029 121.293 345.592 122.744C341.24 124.109 336.589 124.792 331.64 124.792C321.314 124.792 313.762 121.805 308.984 115.832C304.205 109.773 301.816 101.496 301.816 91C301.816 79.736 304.504 71.288 309.88 65.656C315.256 60.024 322.808 57.208 332.536 57.208C335.778 57.208 338.936 57.6347 342.008 58.488C345.08 59.3413 347.81 60.7493 350.2 62.712C352.589 64.6747 354.509 67.32 355.96 70.648C357.41 73.976 358.136 78.1147 358.136 83.064C358.136 84.856 358.008 86.776 357.752 88.824C357.581 90.872 357.282 93.0053 356.856 95.224H318.456C318.712 100.6 320.077 104.653 322.552 107.384C325.112 110.115 329.208 111.48 334.84 111.48C338.338 111.48 341.453 110.968 344.184 109.944C347 108.835 349.133 107.725 350.584 106.616L356.088 117.496ZM332.28 70.52C327.928 70.52 324.685 71.8427 322.552 74.488C320.504 77.048 319.266 80.504 318.84 84.856H342.648C342.989 80.248 342.264 76.7067 340.472 74.232C338.765 71.7573 336.034 70.52 332.28 70.52ZM369.888 33.4H386.528V64.12H387.04C388.832 62.072 391.136 60.4507 393.952 59.256C396.768 58.0613 399.882 57.464 403.296 57.464C410.976 57.464 416.821 60.1093 420.832 65.4C424.928 70.6053 426.976 78.584 426.976 89.336C426.976 100.856 424.117 109.603 418.4 115.576C412.768 121.549 405.002 124.536 395.104 124.536C389.642 124.536 384.65 124.067 380.128 123.128C375.605 122.275 372.192 121.293 369.888 120.184V33.4ZM398.432 71.544C395.36 71.544 392.842 72.3547 390.88 73.976C389.002 75.512 387.552 77.7733 386.528 80.76V108.664C387.893 109.347 389.344 109.816 390.88 110.072C392.501 110.328 394.208 110.456 396 110.456C400.522 110.456 403.936 108.835 406.24 105.592C408.629 102.264 409.824 97.016 409.824 89.848C409.824 77.6453 406.026 71.544 398.432 71.544ZM455.665 101.496C455.665 104.483 456.049 106.659 456.817 108.024C457.585 109.389 458.822 110.072 460.529 110.072C461.553 110.072 462.534 109.987 463.473 109.816C464.497 109.645 465.734 109.261 467.185 108.664L468.977 121.72C467.611 122.403 465.521 123.085 462.705 123.768C459.889 124.451 456.987 124.792 454.001 124.792C449.137 124.792 445.425 123.683 442.865 121.464C440.305 119.16 439.025 115.405 439.025 110.2V33.4H455.665V101.496ZM527.338 117.496C524.778 119.544 521.279 121.293 516.842 122.744C512.49 124.109 507.839 124.792 502.89 124.792C492.564 124.792 485.012 121.805 480.234 115.832C475.455 109.773 473.066 101.496 473.066 91C473.066 79.736 475.754 71.288 481.13 65.656C486.506 60.024 494.058 57.208 503.786 57.208C507.028 57.208 510.186 57.6347 513.258 58.488C516.33 59.3413 519.06 60.7493 521.45 62.712C523.839 64.6747 525.759 67.32 527.21 70.648C528.66 73.976 529.386 78.1147 529.386 83.064C529.386 84.856 529.258 86.776 529.002 88.824C528.831 90.872 528.532 93.0053 528.106 95.224H489.706C489.962 100.6 491.327 104.653 493.802 107.384C496.362 110.115 500.458 111.48 506.09 111.48C509.588 111.48 512.703 110.968 515.434 109.944C518.25 108.835 520.383 107.725 521.834 106.616L527.338 117.496ZM503.53 70.52C499.178 70.52 495.935 71.8427 493.802 74.488C491.754 77.048 490.516 80.504 490.09 84.856H513.898C514.239 80.248 513.514 76.7067 511.722 74.232C510.015 71.7573 507.284 70.52 503.53 70.52ZM576.466 74.616C573.82 73.6773 571.431 73.208 569.298 73.208C566.311 73.208 563.794 74.0187 561.746 75.64C559.783 77.176 558.46 79.1813 557.778 81.656V123H541.138V59H554.066L555.986 67.448H556.498C557.948 64.2907 559.911 61.8587 562.386 60.152C564.86 58.4453 567.762 57.592 571.09 57.592C573.308 57.592 575.826 58.0613 578.642 59L576.466 74.616ZM609.309 94.968L611.613 104.952H612.381L614.045 94.84L623.773 59H640.925L621.469 116.728C619.847 121.507 618.269 125.859 616.733 129.784C615.282 133.795 613.661 137.251 611.869 140.152C610.077 143.053 608.071 145.272 605.853 146.808C603.719 148.429 601.159 149.24 598.173 149.24C593.735 149.24 590.194 148.515 587.549 147.064L590.621 133.752C591.901 134.264 593.181 134.52 594.461 134.52C596.423 134.52 598.301 133.667 600.093 131.96C601.97 130.339 603.378 127.352 604.317 123L577.565 59H597.533L609.309 94.968Z" fill="black"/>
</svg>
