<svg width="179" height="133" viewBox="0 0 179 133" fill="none" xmlns="http://www.w3.org/2000/svg">
<path d="M19.3306 45.2896C19.3306 37.6439 20.8305 31.7738 22.7909 28.2225C25.3613 23.5709 29.195 21.6003 33.1035 21.6003C38.1446 21.6003 42.7563 22.9999 51.6437 36.7526C58.7635 47.7755 67.153 63.2481 72.7978 72.9481L82.3573 89.3816C88.9979 100.795 96.6841 113.482 105.497 122.081C112.691 129.101 120.452 133 128.263 133C141.376 133 153.867 124.498 163.426 108.552C173.888 91.0876 178.967 69.0904 178.967 46.3898C178.967 32.8949 176.589 22.9791 172.544 15.1453C168.635 7.56916 161.018 -4.23193e-06 148.203 -4.23193e-06V21.6003C159.176 21.6003 161.914 32.8809 161.914 45.791C161.914 64.1882 158.08 84.6047 149.635 99.1929C143.641 109.54 135.874 115.863 127.329 115.863C118.087 115.863 110.65 108.064 102.292 94.1584C97.8479 86.7703 93.286 77.7667 88.1639 67.6072L82.5253 56.431C71.1983 33.9603 68.3292 28.8422 62.6657 20.3956C52.739 5.60549 44.2624 -4.23193e-06 33.1035 -4.23193e-06C19.8658 -4.23193e-06 11.495 6.41324 6.31076 16.0784C2.07869 23.9539 0 34.2875 0 46.0626L19.3306 45.2896Z" fill="white"/>
<path d="M15.2422 107.027C24.1046 122.311 36.8942 133 51.5633 133C60.0585 133 68.504 130.187 77.3229 122.13C86.9695 113.322 97.2509 98.8169 110.078 74.9117L114.677 66.3329C125.78 45.6378 132.097 34.9908 135.794 29.9703C140.549 23.5222 143.878 21.6003 148.204 21.6003C159.176 21.6003 161.914 32.8809 161.914 45.791L178.967 46.3898C178.967 32.8949 176.59 22.9791 172.544 15.1453C168.636 7.56916 161.018 -4.23193e-06 148.204 -4.23193e-06C140.238 -4.23193e-06 133.18 1.93581 125.376 10.1735C119.376 16.4962 112.362 27.7281 106.966 37.8249L90.9153 67.823C82.8619 82.8778 75.4745 94.1027 71.1988 99.186C66.5996 104.652 60.6871 111.253 51.2521 111.253C43.6157 111.253 37.1307 105.258 31.7037 96.0873L15.2422 107.027Z" fill="white"/>
<path d="M51.2516 111.253C43.6152 111.253 37.1302 105.258 31.7032 96.0873C24.0294 83.1285 19.3306 63.8261 19.3306 45.2896C19.3306 37.6439 20.8305 31.7738 22.7909 28.2225L6.31076 16.0784C2.07869 23.9539 0 34.2875 0 46.0626C0 67.4749 5.25274 89.7924 15.2417 107.027C24.1041 122.311 36.8937 133 51.5628 133L51.2516 111.253Z" fill="white"/>
</svg>
